PathFileType	4	(X/Y/Z)	Patient4_TMGait_0pt4_03_left_30.trc.trc
DataRate	CameraRate	NumFrames	NumMarkers	Units	OrigDataRate	OrigDataStartFrame	OrigNumFrames
76.923076923077	76.923076923077	6	33	mm	76.923076923077	89	       141
Frame#	Time	Sacral			L.Shoulder			Chest			R.Shoulder			Neck			R.ASIS			L.ASIS			R.Thigh.Superior			R.Thigh.Lateral			R.Thigh.Inferior			R.Patella			L.Thigh.Superior			L.Thigh.Lateral			L.Thigh.Inferior			L.Patella			L.Shank.Superior			L.Shank.Lateral			L.Shank.Inferior			R.Shank.Superior			R.Shank.Lateral			R.Shank.Inferior			R.Heel			R.Midfoot.Superior			R.Midfoot.Lateral			R.Toe			L.Heel			L.Midfoot.Lateral			L.Midfoot.Superior			L.Toe			L.Elbow			L.Wrist			R.Elbow			R.Wrist			
		X1	Y1	Z1	X2	Y2	Z2	X3	Y3	Z3	X4	Y4	Z4	X5	Y5	Z5	X6	Y6	Z6	X7	Y7	Z7	X8	Y8	Z8	X9	Y9	Z9	X10	Y10	Z10	X11	Y11	Z11	X12	Y12	Z12	X13	Y13	Z13	X14	Y14	Z14	X15	Y15	Z15	X16	Y16	Z16	X17	Y17	Z17	X18	Y18	Z18	X19	Y19	Z19	X20	Y20	Z20	X21	Y21	Z21	X22	Y22	Z22	X23	Y23	Z23	X24	Y24	Z24	X25	Y25	Z25	X26	Y26	Z26	X27	Y27	Z27	X28	Y28	Z28	X29	Y29	Z29	X30	Y30	Z30	X31	Y31	Z31	X32	Y32	Z32	X33	Y33	Z33	

89	40.704000000000	878.320467110033	996.455094715489	475.514572038807	1044.844569321436	1429.917760410664	290.777203416922	1147.532086563788	1367.760223112524	454.321421891448	1057.547184535211	1436.552474868889	626.909502051590	1018.325584991690	1491.910917250967	448.157571064748	1110.470787879834	941.733306578721	595.170415043428	1096.069387337014	961.167462437110	321.133670267908	1165.806695816875	746.553490197410	567.688926443994	1092.848386997000	633.222320131677	629.043779591972	1174.944751105174	585.779385445466	549.600404380441	1182.494432220991	497.057385073518	556.958012517793	1146.999550618002	744.566182994213	342.247064649073	1067.624031033921	627.676246385800	269.556894723562	1158.115453550552	546.775312370939	325.455716365187	1154.561475531829	462.154853002589	320.367037600715	1090.029491851694	401.481908974051	312.392806837573	953.481436427585	350.669470834881	259.653588611459	946.796942105895	221.330664443233	314.310073470387	1155.169930711940	406.859206524789	565.735152408333	1087.520392750432	303.061577770880	631.508637974239	1129.193611752294	207.561119546383	568.407081113655	998.361443961237	42.421778494880	546.209768267151	1169.525682254054	97.334021339232	575.456530388258	1084.466387981310	37.320913808180	618.089236078945	1291.846671553102	46.745795054991	598.724756144656	762.693308803949	138.864052847999	351.162340920059	823.054091660565	103.938345538656	268.237831674715	925.707412526547	123.161007575706	289.951664446599	1015.118370303272	33.050379477292	254.283675626261	1047.353569968939	1086.032741335636	153.253391561969	1262.109497509539	936.453148921697	126.185539191629	1003.806569623576	1095.676732770163	753.901086005472	1105.755244942680	854.177290965603	755.196831759573	
90	40.717000000000	878.227420494584	996.803152641042	479.249731158485	1042.880844782114	1430.473710255771	293.652349831310	1147.334847545840	1368.168228919546	456.074956937333	1059.215053009332	1436.745207057095	629.657336718125	1017.836833991353	1492.231044240250	451.380146089703	1111.232820119854	942.317862782552	597.087076322767	1094.443138315190	961.077057400213	323.395177997319	1164.763116716361	745.986937633663	570.109982339382	1090.624343001766	633.036104721105	630.983938956341	1172.191125006427	585.209957751970	551.365809223716	1178.909571512710	496.506446143543	558.181547773889	1151.557591242555	748.073579479193	344.928655776382	1077.222046774820	629.285340832709	271.074796401838	1169.923410331043	550.592855630554	327.404335293466	1167.839445862499	464.969966090155	321.797355680537	1101.897416804293	403.924639028246	313.755338014961	963.791841642486	357.133321065987	260.965934285997	953.462602150605	227.890892662495	315.369157017518	1151.346157017315	406.450520256145	566.789200303395	1083.434758641165	302.707439525469	632.164401211246	1124.559887781300	207.258450433515	568.769049979970	993.060210618889	42.403027196347	546.307258398789	1164.254826328907	97.215991963997	575.632472007171	1079.146577217168	37.258847932272	618.223491450517	1286.571616767566	46.529581537196	598.942217206352	766.408729705603	153.123962530618	352.031513652529	825.243380307110	115.311558633752	269.053837347737	929.119984414235	129.035332534274	290.895192092102	1013.423566207040	32.910843124947	255.117709906336	1042.622040222238	1085.419877885116	158.337296894995	1250.004925247107	925.244651574972	130.404335963210	1012.041499431773	1095.188176966297	758.276989220794	1123.957586563913	858.302349413546	756.630353341859	
91	40.730000000000	877.953734796526	997.133251676524	482.796260061316	1040.784647311748	1430.910712370688	296.297647067387	1147.034637941682	1368.498082417802	457.581354353304	1060.846433296401	1436.926788277062	632.164149123443	1017.344466535940	1492.496182362258	454.384292659098	1111.817411901891	942.810579824826	598.840581936422	1092.781756068706	960.989407527149	325.445303593743	1163.569468398021	745.425309810551	572.127836910743	1088.507395126037	632.849251218322	632.758000581864	1169.383116093893	584.648226985679	552.823838871705	1175.283047991976	495.959560086409	559.219657331261	1155.704632633568	751.771732682419	347.444721175184	1086.235453080476	631.306329270200	272.474080843111	1180.980317436656	554.887625379375	329.259127006931	1180.537266398222	468.392240396233	323.233058905989	1113.491632392846	406.828592486603	315.092500559040	974.113841244374	363.448961832143	262.309248379956	960.711506403346	234.296263290190	316.517599183721	1147.526086768298	406.030298437903	567.688261812937	1079.365685927905	302.359968076713	632.736707435687	1119.900773458113	206.945212175084	569.044622621760	987.712208850368	42.377591415966	546.404819049678	1158.938969472089	97.080423330178	575.760646460409	1073.781626387296	37.196265950970	618.348774401964	1281.250654707354	46.298417613393	599.118915396336	771.313440931960	166.163302522842	352.997044089548	828.833327824461	125.924257747244	270.004306492967	933.632865745419	134.862422954921	292.036408644024	1013.457283817423	33.172007650011	256.179641993134	1037.801455488675	1084.708896708916	163.248385404050	1236.985489881365	914.035927051157	134.688772503700	1020.464277468646	1094.867846105327	762.486037611419	1142.483920735149	863.268962027462	757.740685181237	
92	40.743000000000	877.546234804478	997.448517961397	486.155568502611	1038.615232018263	1431.245360381625	298.712749938118	1146.645280180510	1368.772593685684	458.865280495021	1062.409212934376	1437.126686697747	634.425065639638	1016.860084737122	1492.723225724628	457.161707227978	1112.244292199222	943.209038228092	600.457715501857	1091.140735177799	960.964458925991	327.310879211622	1162.287271900021	744.887390802470	573.728734652321	1086.560172075748	632.671038338854	634.359832103870	1166.593738119046	584.097972707839	553.973891261569	1171.691495408135	495.417731393187	560.066940199358	1159.354836621689	755.606991955727	349.788227622168	1094.470445631200	633.698056214308	273.774926037918	1191.122132704945	559.585207347369	330.956770564200	1192.471593734513	472.358903089989	324.582580794807	1124.656859765272	410.140277593969	316.336976389492	984.289013079681	369.403558579257	263.652038971264	968.573444544595	240.270608785144	317.680142818000	1143.771276904460	405.603806362386	568.430843587216	1075.368529695450	302.033256457429	633.238881824360	1115.261435809035	206.631955244660	569.241683138419	982.353965003643	42.350740087310	546.509040455929	1153.612563391268	96.947034023310	575.852558568357	1068.408036456904	37.142612755619	618.470998440707	1275.916556421933	46.077808144779	599.260031827555	777.472518947223	177.326457641779	354.000311832816	833.983223212460	135.186673104927	271.041375373706	939.425184241985	140.328728034336	293.286347122448	1015.670695706467	33.857786976181	257.428993807860	1032.863698224430	1083.911506983484	168.022432350478	1223.027029715932	902.969444841444	139.032793669817	1029.061774450184	1094.737811886778	766.471039621088	1161.234167973113	869.125845574622	758.465936474114	
93	40.756000000000	877.054232956672	997.756774960027	489.344253793401	1036.425759777414	1431.497103382713	300.905300968118	1146.183063360842	1369.016262172178	459.953832572715	1063.881523514158	1437.375441283656	636.441213225785	1016.392308059940	1492.930871246882	459.707724747653	1112.536423076056	943.515611787436	601.959551501671	1089.541387862332	961.048801921976	329.023849187002	1160.964260955231	744.381138614343	574.937243153468	1084.793406180567	632.504243004936	635.785354101192	1163.868737039202	583.559204423927	554.840295891075	1168.183918466426	494.879901737023	560.724577942662	1162.455218465689	759.523680876804	351.956128784042	1101.795048230438	636.396837401715	274.995683158451	1200.245960386933	564.591648855578	332.442777070168	1203.507659254445	476.788702964915	325.767517420541	1135.288413414611	413.784197803919	317.429517099744	994.215117099504	374.774772024240	264.955076677171	977.114191187693	245.542244838753	318.778043741321	1140.113126798723	405.175281255892	569.019919623439	1071.467486684629	301.737601752308	633.678987640109	1110.667718303853	206.326900264357	569.369416249608	977.011063775718	42.326075950705	546.622378906824	1148.299841599736	96.829008871153	575.918279661578	1063.050431371519	37.103462313243	618.593075302552	1270.591207481888	45.884918345886	599.370868502249	784.969124025329	186.039229098196	354.983800787593	840.843914118274	142.577688968651	272.103231183609	946.686387996781	145.121004709292	294.540592612669	1020.470836585290	34.932653825204	258.778847538512	1027.774420250318	1083.047496491665	172.698484361223	1208.120587576293	892.185950700681	143.431635828248	1037.808765122004	1094.824685899180	770.181955610280	1180.101157200853	875.920218663490	758.749909446877	
94	40.769000000000	876.524307570022	998.067702718384	492.387665912229	1034.258194243201	1431.683799303778	302.889833580774	1145.665562525950	1369.249950612891	460.873367622209	1065.254520685096	1437.697885388274	638.219932267732	1015.946209487030	1493.136123678862	462.019931921484	1112.719075736943	943.735626719827	603.358185299378	1087.978024027990	961.271819792828	330.612312596382	1159.631600842999	743.905672283111	575.802444610175	1083.181332968053	632.347364540193	637.033608630855	1161.228998374963	583.029586179136	555.462694675737	1164.784435900344	494.343910308877	561.201237068313	1164.984187243423	763.464115018360	353.944158411641	1108.137451133346	639.320356666523	276.151415096846	1208.300603834028	569.796593138059	333.681249787175	1213.554190260745	481.584097612656	326.736063596650	1145.323923578136	417.666958951713	318.328165915681	1003.841648460296	379.346478686379	266.179537702818	986.419465337204	249.867805231305	319.738503452232	1136.557266310304	404.747147448946	569.462947298992	1067.661680496680	301.478636294182	634.061144673065	1106.129041831504	206.034766876289	569.437481432070	971.698411959048	42.305625872302	546.743926743233	1143.014894114871	96.733072779186	575.965741731399	1057.722416139161	37.080929064983	618.715482213047	1265.286472926074	45.728084448288	599.456354351469	793.902908969971	191.856410155847	355.900802146680	849.544333990378	147.695174164967	273.120299412613	955.590896398031	148.957847313730	295.687207656701	1028.168092130184	36.303851783456	260.091233202261	1022.499289083347	1082.141290301172	177.310089685745	1192.282166422422	881.820368212976	147.884170790029	1046.666368730875	1095.151958459798	773.577816357227	1198.968821164135	883.691171839634	758.545204255119	
